<?xml version="1.0" encoding="utf-8"?>
<!-- Generator: Adobe Illustrator 23.0.6, SVG Export Plug-In . SVG Version: 6.00 Build 0)  -->
<svg version="1.1" id="Layer_1_copy_2" xmlns="http://www.w3.org/2000/svg" xmlns:xlink="http://www.w3.org/1999/xlink" x="0px"
	 y="0px" viewBox="0 0 299.9 39.1" style="enable-background:new 0 0 299.9 39.1;" xml:space="preserve">
<style type="text/css">
	.st0{fill:#DC3545;}
	.st1{fill:#FFFFFF;}
	.st2{font-family:'MyriadPro-Regular';}
	.st3{font-size:11px;}
	.st4{font-size:30.3305px;}
</style>
<g>
	<g id="XMLID_1_">
		<g>
			<path class="st0" d="M149.9,38.1c-51.4,0.1-85.6-3.9-104.5-7c-11.1-1.8-17.9-5.1-17.9-8.6v-7.1c0-3.9,8-7.4,20.9-9
				C66.7,4,98.7,1.3,149.9,1c51.2,0.3,83.2,3,101.6,5.4c12.8,1.7,20.9,5.2,20.9,9v7.1c0,3.5-6.8,6.8-17.9,8.6
				C235.5,34.3,201.3,38.2,149.9,38.1z"/>
		</g>
		<g>
		</g>
	</g>
</g>
<text transform="matrix(2.2821 0 0 1 1.0151 38.9082)" class="st1 st2 st3">COMMUNICATION POINT</text>
<g>
	<text transform="matrix(1.9384 0 0 1 64.2161 26.3867)" class="st1 st2 st4">EL</text>
	<text transform="matrix(1.9384 0 0 1 124.988 27.0342)" class="st2 st4">ANA</text>
</g>
</svg>
